# xmcd
#
# Track frame offsets:
#	150
#	11300
#	20750
#	29132
#	45251
#	61021
#	69172
#	89864
#	103951
#
# Disc length: 1511 seconds
#
# Revision: 2
# Processed by: cddbd v1.5.2PL0 Copyright (c) Steve Scherf et al.
# Submitted via: audiograbber 1.83.01
#
DISCID=7105e509
DTITLE=Kenny Rogers - Christmas Live
DYEAR=2010
DGENRE=Country
TTITLE0=My Favorite Things
TTITLE1=Silent Night
TTITLE2=Let Snow! Let It Snow! Let It Snow!
TTITLE3=Mary Did You Know
TTITLE4=In A Manger O Holy Night
TTITLE5=O Come All Ye Faithful
TTITLE6=We Three Kings The Little Drummer Boy
TTITLE7=The Chosen One Joy To The World
TTITLE8=Til The Season Comes 'Round Again
EXTD=
EXTT0=
EXTT1=
EXTT2=
EXTT3=
EXTT4=
EXTT5=
EXTT6=
EXTT7=
EXTT8=
PLAYORDER=
